<?xml version="1.0" standalone="no"?>
<!DOCTYPE svg PUBLIC "-//W3C//DTD SVG 20010904//EN"
 "http://www.w3.org/TR/2001/REC-SVG-20010904/DTD/svg10.dtd">
<svg version="1.0" xmlns="http://www.w3.org/2000/svg"
 width="700.000000pt" height="700.000000pt" viewBox="0 0 700.000000 700.000000"
 preserveAspectRatio="xMidYMid meet">
<metadata>
Created by potrace 1.14, written by Peter Selinger 2001-2017
</metadata>
<g transform="translate(0.000000,700.000000) scale(0.100000,-0.100000)"
fill="#000000" stroke="none">
<path d="M819 6925 c-2 -2 -29 -6 -59 -9 -173 -16 -377 -131 -501 -280 -87
-106 -157 -257 -177 -386 -9 -63 -9 -5444 1 -5503 25 -152 96 -295 212 -425
67 -76 209 -167 315 -202 149 -50 32 -48 2920 -46 1488 2 2721 6 2740 10 117
25 252 85 335 150 75 58 88 71 145 143 69 86 123 194 153 306 l22 82 0 2715
c0 1493 -4 2739 -8 2769 -4 30 -18 87 -32 126 -87 261 -290 451 -561 527 l-79
22 -2711 3 c-1492 1 -2713 0 -2715 -2z m5463 -473 c67 -33 134 -96 165 -156
45 -86 43 41 40 -2816 l-2 -2695 -29 -60 c-38 -76 -110 -149 -184 -183 l-57
-27 -2710 0 -2710 0 -55 22 c-104 43 -183 133 -219 253 -8 25 -10 836 -9 2730
l3 2695 26 55 c50 105 146 185 252 210 18 5 1245 7 2727 7 l2695 -2 67 -33z"/>
<path d="M1954 5742 c-22 -11 -55 -34 -72 -53 -50 -54 -61 -110 -60 -317 1
-100 -2 -185 -5 -189 -4 -3 -89 -6 -189 -5 -209 1 -264 -10 -316 -59 -112
-106 -87 -285 50 -353 51 -25 56 -26 255 -26 186 0 203 -1 204 -17 0 -10 1
-106 2 -213 2 -192 2 -196 29 -241 28 -47 86 -93 135 -105 106 -28 217 30 257
134 13 34 16 81 16 242 l0 199 218 3 219 3 41 28 c82 54 121 148 97 237 -17
65 -46 104 -103 137 -46 27 -49 28 -242 30 -107 1 -203 2 -212 3 -17 0 -18 16
-18 203 0 202 0 204 -27 258 -52 100 -180 147 -279 101z"/>
<path d="M4302 5163 c-85 -29 -153 -128 -145 -213 8 -92 73 -178 152 -200 22
-6 278 -10 657 -10 l620 0 55 28 c173 88 147 348 -41 399 -21 6 -286 10 -645
10 -504 0 -617 -2 -653 -14z"/>
<path d="M4318 2690 c-184 -53 -217 -292 -55 -397 l42 -28 651 0 651 0 48 30
c70 43 109 118 102 196 -5 63 -23 102 -63 143 -65 64 -27 61 -719 62 -346 1
-642 -2 -657 -6z"/>
<path d="M1593 2669 c-56 -10 -81 -24 -124 -69 -55 -58 -71 -132 -47 -214 9
-32 44 -73 161 -193 l149 -152 -142 -143 c-160 -160 -180 -192 -176 -278 8
-159 175 -257 317 -184 14 7 90 77 168 155 l142 141 140 -138 c76 -77 154
-147 171 -156 99 -54 228 -19 288 76 36 60 43 144 14 204 -9 20 -81 102 -159
181 l-142 145 139 139 c76 77 148 157 158 178 57 110 -7 260 -126 299 -53 18
-146 7 -185 -21 -18 -13 -91 -82 -163 -155 l-131 -132 -146 144 c-80 79 -159
149 -175 155 -52 20 -88 25 -131 18z"/>
<path d="M4360 1820 c-63 -6 -103 -26 -141 -67 -64 -68 -78 -152 -42 -234 27
-58 49 -82 103 -110 l45 -24 635 1 c593 0 637 1 670 18 77 40 115 92 125 172
13 96 -33 182 -121 224 -46 23 -48 23 -632 24 -323 0 -612 -1 -642 -4z"/>
</g>
</svg>
